<svg xmlns="http://www.w3.org/2000/svg" xmlns:xlink="http://www.w3.org/1999/xlink" zoomAndPan="magnify" preserveAspectRatio="xMidYMid meet" version="1.0" viewBox="66.61 154.67 238.18 66"><defs><g/><clipPath id="dd804fd2b5"><path d="M 66.605469 154.671875 L 132.605469 154.671875 L 132.605469 220.671875 L 66.605469 220.671875 Z M 66.605469 154.671875 " clip-rule="nonzero"/></clipPath></defs><g clip-path="url(#dd804fd2b5)"><path fill="#ffffff" d="M 99.566406 154.71875 C 99.394531 154.71875 99.234375 154.757812 99.085938 154.84375 L 87.589844 161.226562 C 87.375 161.308594 87.207031 161.449219 87.089844 161.648438 C 86.972656 161.847656 86.933594 162.0625 86.96875 162.292969 L 86.96875 175.054688 C 86.96875 175.433594 87.136719 175.714844 87.46875 175.898438 L 98.96875 182.292969 C 99.140625 182.425781 99.335938 182.492188 99.554688 182.492188 C 99.773438 182.492188 99.96875 182.425781 100.140625 182.292969 L 111.648438 175.898438 C 111.980469 175.714844 112.144531 175.433594 112.144531 175.054688 L 112.144531 162.144531 C 112.144531 162.140625 112.144531 162.136719 112.144531 162.136719 C 112.144531 162.121094 112.144531 162.105469 112.144531 162.089844 C 112.140625 162.070312 112.140625 162.046875 112.136719 162.027344 C 112.136719 162.023438 112.136719 162.023438 112.136719 162.023438 C 112.136719 162.015625 112.136719 162.011719 112.132812 162.007812 C 112.132812 161.984375 112.128906 161.960938 112.121094 161.9375 C 112.121094 161.933594 112.121094 161.929688 112.121094 161.925781 C 112.113281 161.902344 112.109375 161.882812 112.101562 161.859375 C 112.097656 161.851562 112.097656 161.84375 112.09375 161.835938 C 112.085938 161.8125 112.078125 161.789062 112.070312 161.769531 C 112.070312 161.765625 112.066406 161.765625 112.066406 161.765625 C 112.058594 161.746094 112.050781 161.726562 112.039062 161.707031 C 112.035156 161.695312 112.03125 161.6875 112.027344 161.679688 C 112.023438 161.671875 112.019531 161.664062 112.015625 161.65625 C 112.003906 161.636719 111.988281 161.617188 111.976562 161.597656 C 111.976562 161.597656 111.976562 161.59375 111.976562 161.59375 C 111.960938 161.578125 111.949219 161.558594 111.933594 161.542969 C 111.929688 161.535156 111.925781 161.527344 111.917969 161.519531 C 111.914062 161.511719 111.90625 161.507812 111.902344 161.5 C 111.898438 161.5 111.894531 161.496094 111.894531 161.492188 C 111.875 161.472656 111.855469 161.453125 111.835938 161.433594 C 111.835938 161.433594 111.835938 161.433594 111.832031 161.429688 C 111.816406 161.414062 111.796875 161.398438 111.78125 161.386719 C 111.777344 161.382812 111.777344 161.382812 111.777344 161.382812 C 111.75 161.363281 111.726562 161.34375 111.699219 161.328125 C 111.683594 161.316406 111.664062 161.308594 111.648438 161.296875 L 111.640625 161.292969 C 111.625 161.285156 111.609375 161.277344 111.59375 161.269531 L 100.027344 154.84375 C 99.882812 154.761719 99.730469 154.722656 99.566406 154.71875 Z M 99.558594 156.800781 L 109.160156 162.132812 L 99.558594 167.335938 L 89.953125 162.132812 Z M 88.90625 163.773438 L 98.589844 169.015625 L 98.589844 179.863281 L 88.90625 174.484375 Z M 110.207031 163.773438 L 110.207031 174.484375 L 100.527344 179.863281 L 100.527344 169.015625 Z M 113.6875 168.378906 L 112.910156 168.769531 L 112.757812 169.625 L 113.347656 170.257812 L 113.6875 170.316406 L 114.460938 169.929688 L 114.617188 169.074219 L 114.019531 168.4375 Z M 84.550781 168.867188 L 83.773438 169.257812 L 83.621094 170.113281 L 84.214844 170.746094 L 84.550781 170.804688 L 85.328125 170.417969 L 85.480469 169.5625 L 84.886719 168.925781 Z M 117.074219 170.261719 L 116.296875 170.652344 L 116.144531 171.503906 L 116.738281 172.140625 L 117.074219 172.199219 L 117.851562 171.8125 L 118.003906 170.957031 L 117.410156 170.320312 Z M 81.164062 170.75 L 80.382812 171.140625 L 80.234375 171.992188 L 80.824219 172.628906 L 81.164062 172.6875 L 81.9375 172.300781 L 82.089844 171.445312 L 81.496094 170.808594 Z M 120.460938 172.144531 L 119.6875 172.53125 L 119.53125 173.386719 L 120.128906 174.023438 L 120.460938 174.082031 L 121.238281 173.691406 L 121.390625 172.839844 L 120.800781 172.207031 Z M 77.773438 172.632812 L 76.996094 173.019531 L 76.84375 173.875 L 77.4375 174.511719 L 77.773438 174.570312 L 78.550781 174.179688 L 78.703125 173.328125 L 78.109375 172.695312 Z M 123.851562 174.027344 L 123.074219 174.417969 L 122.921875 175.273438 L 123.515625 175.90625 L 123.851562 175.964844 L 124.628906 175.578125 L 124.78125 174.722656 L 124.1875 174.085938 Z M 74.382812 174.515625 L 73.609375 174.90625 L 73.453125 175.761719 L 74.046875 176.394531 L 74.382812 176.453125 L 75.160156 176.066406 L 75.3125 175.210938 L 74.722656 174.574219 Z M 125.699219 176.816406 L 124.925781 177.207031 L 124.769531 178.058594 L 125.363281 178.695312 L 125.699219 178.753906 L 126.476562 178.367188 L 126.628906 177.511719 L 126.035156 176.878906 Z M 73.414062 177.820312 L 72.636719 178.210938 L 72.484375 179.066406 L 73.078125 179.699219 L 73.414062 179.761719 L 74.191406 179.371094 L 74.34375 178.515625 L 73.75 177.882812 Z M 125.699219 180.691406 L 124.925781 181.082031 L 124.769531 181.9375 L 125.363281 182.570312 L 125.699219 182.632812 L 126.476562 182.242188 L 126.628906 181.386719 L 126.035156 180.753906 Z M 73.414062 181.699219 L 72.636719 182.089844 L 72.484375 182.941406 L 73.078125 183.574219 L 73.414062 183.636719 L 74.191406 183.25 L 74.34375 182.394531 L 73.75 181.757812 Z M 125.699219 184.570312 L 124.925781 184.960938 L 124.769531 185.8125 L 125.363281 186.449219 L 125.699219 186.507812 L 126.476562 186.121094 L 126.628906 185.265625 L 126.035156 184.628906 Z M 79.230469 185.222656 C 79.0625 185.21875 78.902344 185.261719 78.753906 185.34375 L 67.25 191.734375 C 67.039062 191.8125 66.875 191.949219 66.761719 192.144531 C 66.644531 192.339844 66.605469 192.550781 66.636719 192.777344 L 66.636719 205.550781 C 66.636719 205.933594 66.804688 206.214844 67.136719 206.402344 L 78.609375 212.773438 L 78.617188 212.78125 C 78.792969 212.917969 78.992188 212.988281 79.214844 212.992188 C 79.4375 212.992188 79.640625 212.925781 79.816406 212.789062 L 91.3125 206.402344 C 91.644531 206.214844 91.8125 205.933594 91.8125 205.550781 L 91.8125 192.832031 C 91.863281 192.585938 91.824219 192.359375 91.699219 192.144531 C 91.574219 191.929688 91.394531 191.785156 91.160156 191.710938 L 79.695312 185.34375 C 79.550781 185.261719 79.394531 185.222656 79.230469 185.222656 Z M 119.898438 185.222656 C 119.726562 185.21875 119.566406 185.261719 119.417969 185.34375 L 107.90625 191.734375 C 107.699219 191.816406 107.535156 191.957031 107.421875 192.152344 C 107.308594 192.34375 107.269531 192.554688 107.300781 192.777344 L 107.300781 205.550781 C 107.300781 205.933594 107.46875 206.214844 107.800781 206.402344 L 119.292969 212.785156 C 119.46875 212.921875 119.667969 212.992188 119.890625 212.992188 C 120.113281 212.992188 120.3125 212.921875 120.488281 212.785156 L 131.980469 206.402344 C 132.3125 206.214844 132.480469 205.933594 132.480469 205.550781 L 132.480469 192.824219 C 132.527344 192.582031 132.488281 192.355469 132.363281 192.140625 C 132.238281 191.929688 132.058594 191.785156 131.824219 191.710938 L 120.359375 185.34375 C 120.214844 185.261719 120.0625 185.222656 119.898438 185.222656 Z M 73.414062 185.574219 L 72.636719 185.964844 L 72.484375 186.820312 L 73.078125 187.453125 L 73.414062 187.511719 L 74.191406 187.125 L 74.34375 186.269531 L 73.75 185.636719 Z M 79.226562 187.296875 L 88.828125 192.632812 L 79.222656 197.835938 L 69.621094 192.632812 Z M 119.890625 187.296875 L 129.492188 192.632812 L 119.890625 197.835938 L 110.285156 192.632812 Z M 130.539062 194.269531 L 130.539062 204.984375 L 120.859375 210.363281 L 120.859375 199.515625 Z M 68.574219 194.269531 L 78.253906 199.515625 L 78.253906 210.363281 L 68.574219 204.984375 Z M 89.875 194.269531 L 89.875 204.984375 L 80.191406 210.363281 L 80.191406 199.515625 Z M 109.238281 194.269531 L 118.921875 199.515625 L 118.921875 210.363281 L 109.238281 204.984375 Z M 85.949219 211.074219 L 85.171875 211.464844 L 85.019531 212.320312 L 85.613281 212.953125 L 85.949219 213.015625 L 86.726562 212.625 L 86.878906 211.769531 L 86.285156 211.136719 Z M 112.976562 211.085938 L 112.199219 211.476562 L 112.046875 212.332031 L 112.640625 212.964844 L 112.976562 213.027344 L 113.753906 212.636719 L 113.90625 211.78125 L 113.3125 211.148438 Z M 89.332031 212.96875 L 88.554688 213.355469 L 88.402344 214.210938 L 88.996094 214.847656 L 89.332031 214.90625 L 90.109375 214.515625 L 90.261719 213.660156 L 89.667969 213.027344 Z M 109.601562 212.996094 L 108.828125 213.386719 L 108.671875 214.242188 L 109.269531 214.875 L 109.601562 214.9375 L 110.378906 214.546875 L 110.53125 213.691406 L 109.941406 213.058594 Z M 92.714844 214.859375 L 91.941406 215.246094 L 91.789062 216.105469 L 92.378906 216.738281 L 92.714844 216.796875 L 93.492188 216.410156 L 93.644531 215.554688 L 93.050781 214.921875 Z M 106.230469 214.90625 L 105.453125 215.296875 L 105.300781 216.152344 L 105.894531 216.785156 L 106.230469 216.84375 L 107.007812 216.457031 L 107.160156 215.601562 L 106.566406 214.96875 Z M 96.097656 216.75 L 95.324219 217.140625 L 95.167969 217.996094 L 95.765625 218.628906 L 96.097656 218.6875 L 96.875 218.300781 L 97.027344 217.445312 L 96.4375 216.8125 Z M 102.855469 216.816406 L 102.082031 217.207031 L 101.925781 218.0625 L 102.519531 218.695312 L 102.855469 218.753906 L 103.632812 218.367188 L 103.785156 217.511719 L 103.195312 216.878906 Z M 99.484375 218.644531 L 98.707031 219.035156 L 98.554688 219.886719 L 99.148438 220.523438 L 99.484375 220.582031 L 100.257812 220.191406 L 100.414062 219.339844 L 99.820312 218.703125 Z M 99.484375 218.644531 " fill-opacity="1" fill-rule="nonzero"/></g><g fill="#ffffff" fill-opacity="1"><g transform="translate(149.848572, 194.085809)"><g><path d="M 1.664062 0 L 6.300781 0 C 8.601562 0 10.039062 -1.222656 10.039062 -3.199219 C 10.039062 -4.488281 9.402344 -5.453125 8.226562 -5.925781 C 9.15625 -6.398438 9.710938 -7.28125 9.710938 -8.390625 C 9.710938 -10.234375 8.277344 -11.425781 6.089844 -11.425781 L 1.664062 -11.425781 Z M 3.101562 -1.339844 L 3.101562 -5.175781 L 6.25 -5.175781 C 7.738281 -5.175781 8.570312 -4.472656 8.570312 -3.265625 C 8.570312 -2.039062 7.738281 -1.339844 6.269531 -1.339844 Z M 3.101562 -6.480469 L 3.101562 -10.085938 L 6.054688 -10.085938 C 7.441406 -10.085938 8.242188 -9.433594 8.242188 -8.277344 C 8.242188 -7.132812 7.460938 -6.480469 6.054688 -6.480469 Z M 3.101562 -6.480469 "/></g></g></g><g fill="#ffffff" fill-opacity="1"><g transform="translate(162.033637, 194.085809)"><g><path d="M 4.570312 0 L 5.972656 0 L 5.972656 -4.113281 L 10.265625 -11.425781 L 8.652344 -11.425781 L 5.289062 -5.648438 L 3.804688 -8.226562 L 1.941406 -11.425781 L 0.277344 -11.425781 L 4.570312 -4.113281 Z M 4.570312 0 "/></g></g></g><g fill="#ffffff" fill-opacity="1"><g transform="translate(173.810948, 194.085809)"><g><path d="M 4.421875 0 L 5.859375 0 L 5.859375 -10.054688 L 9.710938 -10.054688 L 9.710938 -11.425781 L 0.554688 -11.425781 L 0.554688 -10.054688 L 4.421875 -10.054688 Z M 4.421875 0 "/></g></g></g><g fill="#ffffff" fill-opacity="1"><g transform="translate(185.327298, 194.085809)"><g><path d="M 1.664062 0 L 8.78125 0 L 8.78125 -1.339844 L 3.101562 -1.339844 L 3.101562 -5.15625 L 8.195312 -5.15625 L 8.195312 -6.480469 L 3.101562 -6.480469 L 3.101562 -10.085938 L 8.601562 -10.085938 L 8.601562 -11.425781 L 1.664062 -11.425781 Z M 1.664062 0 "/></g></g></g><g fill="#ffffff" fill-opacity="1"><g transform="translate(196.403281, 194.085809)"><g><path d="M 5.46875 0.210938 C 7.964844 0.210938 9.582031 -1.011719 9.582031 -3.003906 C 9.582031 -4.683594 8.453125 -5.695312 5.535156 -6.414062 C 3.3125 -6.953125 2.578125 -7.539062 2.578125 -8.488281 C 2.578125 -9.582031 3.558594 -10.265625 5.191406 -10.265625 C 6.871094 -10.265625 7.917969 -9.417969 7.949219 -8.046875 L 9.367188 -8.046875 C 9.351562 -10.265625 7.753906 -11.636719 5.191406 -11.636719 C 2.691406 -11.636719 1.109375 -10.414062 1.109375 -8.488281 C 1.109375 -6.726562 2.367188 -5.746094 5.175781 -5.078125 C 7.230469 -4.585938 8.097656 -4.015625 8.097656 -2.953125 C 8.097656 -1.828125 7.082031 -1.160156 5.46875 -1.160156 C 3.6875 -1.160156 2.449219 -2.039062 2.414062 -3.507812 L 0.980469 -3.507812 C 0.996094 -1.273438 2.742188 0.210938 5.46875 0.210938 Z M 5.46875 0.210938 "/></g></g></g><g fill="#ffffff" fill-opacity="1"><g transform="translate(208.1969, 194.085809)"><g/></g></g><g fill="#ffffff" fill-opacity="1"><g transform="translate(213.482835, 194.085809)"><g><path d="M 1.664062 0 L 6.300781 0 C 8.601562 0 10.039062 -1.222656 10.039062 -3.199219 C 10.039062 -4.488281 9.402344 -5.453125 8.226562 -5.925781 C 9.15625 -6.398438 9.710938 -7.28125 9.710938 -8.390625 C 9.710938 -10.234375 8.277344 -11.425781 6.089844 -11.425781 L 1.664062 -11.425781 Z M 3.101562 -1.339844 L 3.101562 -5.175781 L 6.25 -5.175781 C 7.738281 -5.175781 8.570312 -4.472656 8.570312 -3.265625 C 8.570312 -2.039062 7.738281 -1.339844 6.269531 -1.339844 Z M 3.101562 -6.480469 L 3.101562 -10.085938 L 6.054688 -10.085938 C 7.441406 -10.085938 8.242188 -9.433594 8.242188 -8.277344 C 8.242188 -7.132812 7.460938 -6.480469 6.054688 -6.480469 Z M 3.101562 -6.480469 "/></g></g></g><g fill="#ffffff" fill-opacity="1"><g transform="translate(225.667898, 194.085809)"><g><path d="M 1.664062 0 L 3.101562 0 L 3.101562 -4.097656 L 5.613281 -4.097656 L 8.40625 0 L 10.136719 0 L 7.261719 -4.242188 C 8.929688 -4.652344 9.957031 -5.910156 9.957031 -7.753906 C 9.957031 -10.023438 8.390625 -11.425781 6.023438 -11.425781 L 1.664062 -11.425781 Z M 3.101562 -5.46875 L 3.101562 -10.054688 L 5.859375 -10.054688 C 7.523438 -10.054688 8.488281 -9.207031 8.488281 -7.753906 C 8.488281 -6.300781 7.523438 -5.46875 5.859375 -5.46875 Z M 3.101562 -5.46875 "/></g></g></g><g fill="#ffffff" fill-opacity="1"><g transform="translate(238.016062, 194.085809)"><g><path d="M 6.855469 0.210938 C 10.332031 0.210938 12.78125 -2.234375 12.78125 -5.710938 C 12.78125 -9.191406 10.332031 -11.636719 6.855469 -11.636719 C 3.378906 -11.636719 0.945312 -9.191406 0.945312 -5.710938 C 0.945312 -2.234375 3.378906 0.210938 6.855469 0.210938 Z M 2.414062 -5.710938 C 2.414062 -8.375 4.226562 -10.203125 6.855469 -10.203125 C 9.484375 -10.203125 11.296875 -8.375 11.296875 -5.710938 C 11.296875 -3.050781 9.484375 -1.222656 6.855469 -1.222656 C 4.226562 -1.222656 2.414062 -3.050781 2.414062 -5.710938 Z M 2.414062 -5.710938 "/></g></g></g><g fill="#ffffff" fill-opacity="1"><g transform="translate(252.957521, 194.085809)"><g><path d="M 4.015625 0 L 5.355469 0 L 8.78125 -9.253906 L 10.675781 -4.164062 L 12.226562 0 L 13.5625 0 L 17.285156 -11.425781 L 15.785156 -11.425781 L 12.847656 -2.285156 L 9.46875 -11.425781 L 8.113281 -11.425781 L 4.734375 -2.300781 L 3.394531 -6.496094 L 1.8125 -11.425781 L 0.308594 -11.425781 Z M 4.015625 0 "/></g></g></g><g fill="#ffffff" fill-opacity="1"><g transform="translate(271.780752, 194.085809)"><g><path d="M 5.46875 0.210938 C 7.964844 0.210938 9.582031 -1.011719 9.582031 -3.003906 C 9.582031 -4.683594 8.453125 -5.695312 5.535156 -6.414062 C 3.3125 -6.953125 2.578125 -7.539062 2.578125 -8.488281 C 2.578125 -9.582031 3.558594 -10.265625 5.191406 -10.265625 C 6.871094 -10.265625 7.917969 -9.417969 7.949219 -8.046875 L 9.367188 -8.046875 C 9.351562 -10.265625 7.753906 -11.636719 5.191406 -11.636719 C 2.691406 -11.636719 1.109375 -10.414062 1.109375 -8.488281 C 1.109375 -6.726562 2.367188 -5.746094 5.175781 -5.078125 C 7.230469 -4.585938 8.097656 -4.015625 8.097656 -2.953125 C 8.097656 -1.828125 7.082031 -1.160156 5.46875 -1.160156 C 3.6875 -1.160156 2.449219 -2.039062 2.414062 -3.507812 L 0.980469 -3.507812 C 0.996094 -1.273438 2.742188 0.210938 5.46875 0.210938 Z M 5.46875 0.210938 "/></g></g></g><g fill="#ffffff" fill-opacity="1"><g transform="translate(283.574368, 194.085809)"><g><path d="M 1.664062 0 L 8.78125 0 L 8.78125 -1.339844 L 3.101562 -1.339844 L 3.101562 -5.15625 L 8.195312 -5.15625 L 8.195312 -6.480469 L 3.101562 -6.480469 L 3.101562 -10.085938 L 8.601562 -10.085938 L 8.601562 -11.425781 L 1.664062 -11.425781 Z M 1.664062 0 "/></g></g></g><g fill="#ffffff" fill-opacity="1"><g transform="translate(294.650346, 194.085809)"><g><path d="M 1.664062 0 L 3.101562 0 L 3.101562 -4.097656 L 5.613281 -4.097656 L 8.40625 0 L 10.136719 0 L 7.261719 -4.242188 C 8.929688 -4.652344 9.957031 -5.910156 9.957031 -7.753906 C 9.957031 -10.023438 8.390625 -11.425781 6.023438 -11.425781 L 1.664062 -11.425781 Z M 3.101562 -5.46875 L 3.101562 -10.054688 L 5.859375 -10.054688 C 7.523438 -10.054688 8.488281 -9.207031 8.488281 -7.753906 C 8.488281 -6.300781 7.523438 -5.46875 5.859375 -5.46875 Z M 3.101562 -5.46875 "/></g></g></g></svg>